# xmcd
#
# Track frame offsets: 
#        150
#        16847
#        27822
#        36168
#        49498
#        69090
#        78802
#        89763
#        102018
#        112590
#        124197
#        136980
#        149368
#        159848
#        178598
#        188373
#        200079
#        213808
#        229385
#        238737
#        248335
#        262681
#        274958
#        286116
#        297286
#        310190
#        337667
#        347393
#
# Disc length: 4793 seconds
#
# Revision: 3
# Processed by: cddbd v1.5.2PL0 Copyright (c) Steve Scherf et al.
# Submitted via: ExactAudioCopy v1.3
#
DISCID=7412b71c
DTITLE=Various Artist - Akella Presents - vol. 06 - Rock'n'Roll   CD2
DYEAR=2013
DGENRE=Rock and Roll
TTITLE0=SLEEPY LaBEEF - Rip it Up
TTITLE1=BELUSHI and AYKROYD - Cadillac Man
TTITLE2=SPRINGLERS - Too Much Wine
TTITLE3=ROCKIN' LOUIE - Boogie Woogie Country Girl
TTITLE4=BILLY LEE RILEY - Lost My Only Love
TTITLE5=BILL HALEY - Rock Around the Clock
TTITLE6=THE BOPTAILS - Comin' Home
TTITLE7=JOHNNY POWERS - Something About You
TTITLE8=CHUCK BERRY - My Mustang Ford
TTITLE9=EL RIO TRIO - Love Charm
TTITLE10=HELLBILLY BOYS - Crazy Groove
TTITLE11=JAN GILLAN and The JAVELINS - Roll Over Beethoven
TTITLE12=TUPELO HIGHSHOTS - Tupelo
TTITLE13=BRUCE WILLIS - Turn It Up (a Little Louder)
TTITLE14=BILLY LEE RILEY - Goin' Jukin'
TTITLE15=WILLIE and the POOR BOYS - Revenue Man
TTITLE16=WILD WIND - Maggie Did It
TTITLE17=JIM BELUSHI&The SACRED HEARTS - If the House Is Rockin'
TTITLE18=ROCKIN' LOUIE - Rock and Roll Man 
TTITLE19=WILD WILLIE and BIG DEAL - Thirty Days
TTITLE20=SHAKIN' STEVENS - Because I Love You
TTITLE21=STRAY CATS - Wasn't That Good
TTITLE22=ARSEN ROULETTE - Messed Up
TTITLE23=EL RIO TRIO - Bop Pretty Baby
TTITLE24=MICKE MUSTER - Hotel Waitress
TTITLE25=JIVE BUNNY - Jive Bunny Medley
TTITLE26=VINCE RAY - Hey Bartender
TTITLE27=CHUCK BERRY - You Never Can Tell
EXTD=
EXTT0=
EXTT1=
EXTT2=
EXTT3=
EXTT4=
EXTT5=
EXTT6=
EXTT7=
EXTT8=
EXTT9=
EXTT10=
EXTT11=
EXTT12=
EXTT13=
EXTT14=
EXTT15=
EXTT16=
EXTT17=
EXTT18=
EXTT19=
EXTT20=
EXTT21=
EXTT22=
EXTT23=
EXTT24=
EXTT25=
EXTT26=
EXTT27=
PLAYORDER=
